<?xml version="1.0" encoding="UTF-8" standalone="no"?>
<!-- Created with Inkscape (http://www.inkscape.org/) -->

<svg
   width="137.0325mm"
   height="27.450602mm"
   viewBox="0 0 137.03251 27.450602"
   version="1.1"
   id="svg1"
   sodipodi:docname="Logo Inkscape.svg"
   xmlns:inkscape="http://www.inkscape.org/namespaces/inkscape"
   xmlns:sodipodi="http://sodipodi.sourceforge.net/DTD/sodipodi-0.dtd"
   xmlns="http://www.w3.org/2000/svg"
   xmlns:svg="http://www.w3.org/2000/svg">
  <sodipodi:namedview
     id="namedview1"
     pagecolor="#ffffff"
     bordercolor="#000000"
     borderopacity="0.25"
     inkscape:showpageshadow="2"
     inkscape:pageopacity="0.0"
     inkscape:pagecheckerboard="0"
     inkscape:deskcolor="#d1d1d1"
     inkscape:document-units="mm" />
  <defs
     id="defs1" />
  <g
     inkscape:label="Layer 1"
     inkscape:groupmode="layer"
     id="layer1"
     transform="translate(-33.856637,-88.99264)">
    <path
       style="font-weight:bold;font-size:28.2223px;font-family:Georgia;-inkscape-font-specification:'Georgia Bold';letter-spacing:0px;word-spacing:0px;fill:#ffffff;stroke-width:0.264583"
       d="m 51.895206,92.947621 q 1.446945,1.32292 2.28755,3.197057 0.854386,1.874137 0.854386,4.271932 0,2.13596 -0.716582,4.06522 -0.716582,1.92926 -2.067063,3.32108 -1.419383,1.44695 -3.334861,2.25999 -1.915479,0.79927 -4.561319,0.79927 -2.135965,0 -4.037663,-0.70281 -1.901698,-0.7028 -3.348642,-2.0395 -1.433164,-1.30914 -2.273769,-3.18327 -0.840606,-1.87414 -0.840606,-4.17547 0,-2.397794 0.813045,-4.340834 0.826825,-1.956819 2.259989,-3.348642 1.419383,-1.364261 3.362422,-2.094623 1.95682,-0.744143 4.161687,-0.744143 2.191087,0 4.106565,0.716582 1.929259,0.716582 3.334861,1.998161 z m -3.541567,13.987129 q 0.620118,-1.25402 0.895727,-2.83877 0.275608,-1.58475 0.275608,-3.58291 0,-1.694991 -0.248047,-3.293519 -0.234267,-1.612309 -0.813045,-2.866328 -0.592558,-1.254018 -1.570968,-2.011941 -0.97841,-0.757923 -2.439134,-0.757923 -2.494256,0 -3.789616,2.370232 -1.295359,2.356452 -1.295359,6.669719 0,1.8328 0.275608,3.45889 0.289389,1.62609 0.895728,2.83877 0.620118,1.22645 1.570967,1.91547 0.950849,0.67525 2.342672,0.67525 1.364261,0 2.342671,-0.68903 0.97841,-0.68902 1.557188,-1.88791 z m 25.245729,-3.32108 q 0,2.90766 -1.943039,4.98851 -1.943039,2.08084 -4.91961,2.08084 -1.32292,0 -2.149745,-0.27561 -0.826826,-0.26183 -1.364262,-0.64768 h -0.110243 v 3.8723 q 0,0.48232 0.206706,0.84061 0.220487,0.35829 0.606338,0.52365 0.372072,0.15159 1.047312,0.27561 0.689021,0.12402 1.143775,0.15159 v 1.01975 h -9.949463 v -1.01975 q 0.344511,-0.0276 0.868167,-0.11025 0.523656,-0.0689 0.785484,-0.15158 0.440973,-0.15159 0.592558,-0.52366 0.165365,-0.35829 0.165365,-0.82682 V 99.713807 q -0.04134,-0.454754 -0.220487,-0.799265 -0.165365,-0.34451 -0.537436,-0.606338 -0.275609,-0.179146 -0.730363,-0.289389 -0.454754,-0.124024 -0.895727,-0.165365 v -1.005971 l 6.711064,-0.35829 0.206707,0.179145 v 1.529627 l 0.110243,0.02756 q 0.909508,-0.923288 2.011941,-1.433163 1.116214,-0.509876 2.204867,-0.509876 2.852547,0 4.506198,2.025722 1.65365,2.011946 1.65365,5.305466 z m -4.947171,0.0551 q 0,-1.03353 -0.151584,-1.9706 -0.151585,-0.95085 -0.537437,-1.69499 -0.372071,-0.744147 -0.99219,-1.185121 -0.606338,-0.440973 -1.488285,-0.440973 -0.895727,0 -1.433164,0.31695 -0.537436,0.303169 -0.937068,0.799264 v 7.8135 q 0.08268,0.27561 0.316949,0.71658 0.234267,0.42719 0.468535,0.68902 0.34451,0.37207 0.785484,0.55122 0.440973,0.17914 0.964629,0.17914 1.364261,0 2.177306,-1.46072 0.826825,-1.47451 0.826825,-4.31327 z m 21.538796,3.36242 q -0.482314,0.78548 -1.171335,1.48828 -0.675241,0.68903 -1.543407,1.18512 -0.923288,0.52366 -1.874137,0.78548 -0.937069,0.27561 -2.163526,0.27561 -2.039502,0 -3.527788,-0.57877 -1.474505,-0.57878 -2.439134,-1.55719 -0.964629,-0.97841 -1.446944,-2.30133 -0.468534,-1.3367 -0.468534,-2.89389 0,-1.4056 0.509875,-2.68718 0.523656,-1.295361 1.474505,-2.301332 0.937069,-0.97841 2.356452,-1.584748 1.433164,-0.606339 3.197057,-0.606339 1.929259,0 3.169497,0.468535 1.240238,0.468534 2.053282,1.295359 0.785484,0.785484 1.143775,1.860357 0.358291,1.061088 0.358291,2.232428 v 0.89573 h -9.315564 q 0,2.82498 1.088653,4.29949 1.088654,1.4745 3.458886,1.4745 1.295359,0 2.328891,-0.7028 1.033531,-0.71658 1.763894,-1.80523 z m -5.26412,-5.23656 q 0,-0.82683 -0.08268,-1.69499 -0.08268,-0.868168 -0.289389,-1.419385 -0.234267,-0.647679 -0.64768,-0.97841 -0.399632,-0.33073 -1.019751,-0.33073 -1.061092,0 -1.694992,1.074873 -0.633899,1.074873 -0.689021,3.403762 z m 24.777197,8.53008 h -8.29582 v -1.00597 q 0.26183,-0.0276 0.6339,-0.0689 0.37208,-0.0413 0.565,-0.13781 0.28939,-0.15158 0.41341,-0.44097 0.12403,-0.28939 0.12403,-0.85439 v -6.44923 q 0,-1.405606 -0.52366,-2.108407 -0.50987,-0.716582 -1.51584,-0.716582 -0.55122,0 -1.03354,0.165365 -0.46853,0.165365 -0.923284,0.482315 -0.399632,0.275608 -0.64768,0.564997 -0.234267,0.289392 -0.399632,0.509872 v 7.40009 q 0,0.48231 0.137804,0.81304 0.137805,0.31695 0.454754,0.48232 0.220487,0.12402 0.551217,0.22049 0.33073,0.0965 0.64768,0.1378 v 1.00597 h -8.378495 v -1.00597 q 0.34451,-0.0276 0.689021,-0.0689 0.35829,-0.0551 0.606338,-0.13781 0.440973,-0.15158 0.606338,-0.46853 0.165366,-0.31695 0.165366,-0.82683 v -8.020201 q 0,-0.427193 -0.220487,-0.840605 -0.220487,-0.413413 -0.578778,-0.675241 -0.248047,-0.165365 -0.633899,-0.275608 -0.372071,-0.110244 -0.826825,-0.151585 v -1.005971 l 6.57326,-0.35829 0.206706,0.206706 v 1.998161 h 0.05512 q 0.385852,-0.344511 0.937068,-0.826826 0.551217,-0.482314 1.019758,-0.785483 0.50987,-0.33073 1.3367,-0.564998 0.82682,-0.234267 1.76389,-0.234267 2.24621,0 3.36242,1.281579 1.13,1.267799 1.13,3.376199 v 6.75241 q 0,0.50988 0.15158,0.81304 0.15159,0.30317 0.565,0.48232 0.22049,0.0965 0.53743,0.19293 0.33073,0.0965 0.74415,0.1378 z M 128.7486,92.782256 q 1.79146,1.171335 2.89389,3.128155 1.10244,1.943039 1.10244,4.768029 0,2.48047 -0.99219,4.32705 -0.97841,1.83279 -2.6045,3.00413 -1.65365,1.17134 -3.76206,1.75011 -2.09462,0.565 -4.39595,0.565 h -9.853 v -1.07487 q 0.44097,-0.0138 1.10243,-0.0827 0.66146,-0.0689 0.88195,-0.16536 0.49609,-0.20671 0.68902,-0.55122 0.19292,-0.35829 0.19292,-0.85438 V 93.733105 q 0,-0.468535 -0.17914,-0.840606 -0.17915,-0.385852 -0.7028,-0.620119 -0.52366,-0.234267 -1.11622,-0.31695 -0.57877,-0.08268 -0.89572,-0.110243 v -1.074873 h 10.40421 q 1.66743,0 3.56913,0.427193 1.9017,0.427193 3.66559,1.584749 z m -2.8112,14.014684 q 0.67524,-1.10243 0.97841,-2.61828 0.31695,-1.52962 0.31695,-3.514 0,-1.943043 -0.41341,-3.541572 -0.41342,-1.598529 -1.21268,-2.728523 -0.79927,-1.129995 -1.99816,-1.750114 -1.18512,-0.620118 -2.70096,-0.620118 -0.48232,0 -1.10244,0.02756 -0.60634,0.01378 -0.90951,0.02756 v 14.841517 q 0,0.49609 0.12403,0.88194 0.1378,0.37207 0.45475,0.66146 0.31695,0.28939 0.7717,0.45476 0.46854,0.15158 1.21268,0.15158 1.55719,0 2.6734,-0.57878 1.11622,-0.57877 1.80524,-1.69499 z m 17.29442,3.52779 h -8.70922 v -1.00597 q 0.35829,-0.0276 0.7028,-0.0689 0.34451,-0.0413 0.59256,-0.13781 0.44097,-0.16536 0.62012,-0.46853 0.17914,-0.31695 0.17914,-0.82683 v -8.020201 q 0,-0.482314 -0.22048,-0.840605 -0.22049,-0.372072 -0.55122,-0.592558 -0.24805,-0.165365 -0.75792,-0.31695 -0.4961,-0.151585 -0.90951,-0.192926 v -1.005971 l 6.7524,-0.35829 0.20671,0.206706 v 10.941655 q 0,0.48231 0.20671,0.82682 0.2067,0.33073 0.59256,0.4961 0.2756,0.12402 0.60633,0.22049 0.33073,0.0965 0.68902,0.1378 z m -2.01194,-18.796493 q 0,1.047312 -0.81304,1.791455 -0.79927,0.730362 -1.9017,0.730362 -1.11621,0 -1.92926,-0.730362 -0.79926,-0.744143 -0.79926,-1.791455 0,-1.047311 0.79926,-1.791454 0.81305,-0.744143 1.92926,-0.744143 1.11621,0 1.91548,0.744143 0.79926,0.744143 0.79926,1.791454 z m 18.0937,15.502973 q -0.48232,0.78548 -1.17134,1.48828 -0.67524,0.68903 -1.5434,1.18512 -0.92329,0.52366 -1.87414,0.78548 -0.93707,0.27561 -2.16353,0.27561 -2.0395,0 -3.52778,-0.57877 -1.47451,-0.57878 -2.43914,-1.55719 -0.96463,-0.97841 -1.44694,-2.30133 -0.46854,-1.3367 -0.46854,-2.89389 0,-1.4056 0.50988,-2.68718 0.52365,-1.295361 1.4745,-2.301332 0.93707,-0.97841 2.35646,-1.584748 1.43316,-0.606339 3.19705,-0.606339 1.92926,0 3.1695,0.468535 1.24024,0.468534 2.05328,1.295359 0.78549,0.785484 1.14378,1.860357 0.35829,1.061088 0.35829,2.232428 v 0.89573 h -9.31557 q 0,2.82498 1.08866,4.29949 1.08865,1.4745 3.45888,1.4745 1.29536,0 2.32889,-0.7028 1.03353,-0.71658 1.7639,-1.80523 z m -5.26412,-5.23656 q 0,-0.82683 -0.0827,-1.69499 -0.0827,-0.868168 -0.28939,-1.419385 -0.23427,-0.647679 -0.64768,-0.97841 -0.39963,-0.33073 -1.01975,-0.33073 -1.0611,0 -1.695,1.074873 -0.63389,1.074873 -0.68902,3.403762 z m 16.83967,7.89618 q -0.88195,0.38585 -1.88792,0.68902 -1.00597,0.31695 -2.45291,0.31695 -2.14975,0 -3.19706,-1.04731 -1.03353,-1.04731 -1.03353,-2.99035 v -8.461179 h -2.48048 v -1.488286 h 2.5356 v -4.175467 h 4.47864 v 4.175467 h 3.85852 v 1.488286 h -3.83096 v 7.551669 q 0,1.61231 0.44097,2.28755 0.45476,0.67524 1.61231,0.67524 0.37207,0 1.03353,-0.0551 0.66146,-0.0551 0.92329,-0.12402 z"
       id="text1"
       aria-label="OpenDiet"
       inkscape:export-filename="logo.svg"
       inkscape:export-xdpi="96"
       inkscape:export-ydpi="96" />
  </g>
</svg>
